# xmcd
#
# Track frame offsets: 
#        150
#        12422
#        26290
#        36549
#        47138
#        61857
#        75714
#        93916
#        106831
#        120465
#        132593
#
# Disc length: 2071 seconds
#
# Revision: 0
# Processed by: cddbd v1.5.2PL0 Copyright (c) Steve Scherf et al.
# Submitted via: ExactAudioCopy v0.95b3
#
DISCID=8808150b
DTITLE=Lonesome Coyotes - 8202
DYEAR=1982
DGENRE=Country
TTITLE0=Baby's Just Like Money
TTITLE1=Baby's Request
TTITLE2=I'll Cry Instead
TTITLE3=Don't Get Around Much Anymore
TTITLE4=You're Not Smilin'
TTITLE5=Marie
TTITLE6=Return of the  Grievous Angel
TTITLE7=Down in the Boondocks
TTITLE8=One Fine Day
TTITLE9=Sweet Tater and Cisco
TTITLE10=Don't Deceive Me
EXTD=
EXTT0=
EXTT1=
EXTT2=
EXTT3=
EXTT4=
EXTT5=
EXTT6=
EXTT7=
EXTT8=
EXTT9=
EXTT10=
PLAYORDER=
